<?xml version="1.0" standalone="no"?> <!DOCTYPE svg PUBLIC "-//W3C//DTD SVG 1.0//EN" "http://www.w3.org/TR/2001/REC-SVG-20010904/DTD/svg10.dtd" > <svg xmlns="http://www.w3.org/2000/svg" width="100%" height="100%">
<defs >
<font id="fp-33437" horiz-adv-x="987" ><font-face
    font-family="Freeroad"
    units-per-em="2048"
    panose-1="2 11 6 3 1 1 1 1 1 1"
    ascent="1400"
    descent="-400"
    alphabetic="0" />
<missing-glyph horiz-adv-x="1100" d="M1000 1400V0H100V1400H1000ZM300 1250V150H800V1250H300Z" />
<glyph unicode=" " glyph-name="space" horiz-adv-x="600" />
<glyph unicode="!" glyph-name="exclam" horiz-adv-x="600" d="M400 1400V1000L380 400H220L200 1000V1400H400ZM400 200V0H200V200H400Z" />
<glyph unicode="&quot;" glyph-name="quotedbl" horiz-adv-x="900" d="M400 1400V1200L380 1000H220L200 1200V1400H400ZM700 1400V1200L680 1000H520L500 1200V1400H700Z" />
<glyph unicode="#" glyph-name="numbersign" horiz-adv-x="1400" d="M200 0L264 300H100V500H307L393 900H200V1100H436L500 1400H700L636 1100H936L1000 1400H1200L1136 1100H1300V900H1093L1007 500H1200V300H964L900 0H700L764 300H464L400 0H200ZM507 500H807L893
900H593L507 500Z" />
<glyph unicode="$" glyph-name="dollar" horiz-adv-x="1098" d="M624 1600V1416Q970 1381 986 1025L788 1000Q788 1181 624 1213V775Q631 773 638 770T653 765Q998 649 998 370Q998 15 624 -17V-200H474V-17Q113 16 100 380L298 400Q298 215 474 185V628Q469 630
464 631T453 635Q108 750 108 1030Q108 1385 474 1417V1600H624ZM798 370Q798 476 624 565V185Q798 210 798 370ZM308 1030Q308 926 474 838V1214Q308 1189 308 1030Z" />
<glyph unicode="%" glyph-name="percent" horiz-adv-x="1600" d="M1200 740Q1500 740 1500 410V320Q1495 0 1200 0Q900 0 900 330V410Q900 740 1200 740ZM400 1400Q695 1400 700 1080V990Q700 660 400 660Q100 660 100 990V1080Q105 1400 400 1400ZM350 0L1060
1400H1250L540 0H350ZM400 820Q516 820 520 980V1070Q520 1240 400 1240Q283 1240 280 1080V990Q280 820 400 820ZM1200 160Q1317 160 1320 321V410Q1320 580 1200 580Q1083 580 1080 420V321Q1083 160 1200 160Z" />
<glyph unicode="&amp;" glyph-name="ampersand" horiz-adv-x="1350" d="M500 0Q100 0 100 400Q100 663 372 773Q300 924 300 1050Q300 1400 650 1400Q1000 1400 1000 1050Q1000 799 651 675Q741 549 882 406Q963 505 1030 650L1200 600Q1120 408 1018 276Q1071
228 1128 178T1250 76L1111 -63Q989 40 886 138Q716 0 500 0ZM745 276Q580 447 475 599Q300 506 300 400Q300 200 500 200Q633 200 745 276ZM500 1050Q500 951 555 834Q800 924 800 1050Q800 1200 650 1200Q500 1200 500 1050Z" />
<glyph unicode="&apos;" glyph-name="quotesingle" horiz-adv-x="600" d="M400 1400V1200L380 1000H220L200 1200V1400H400Z" />
<glyph unicode="(" glyph-name="parenleft" horiz-adv-x="650" d="M550 1600Q300 1301 300 700Q300 99 550 -200H400Q100 100 100 700Q100 1300 400 1600H550Z" />
<glyph unicode=")" glyph-name="parenright" horiz-adv-x="650" d="M250 1600Q550 1300 550 700Q550 100 250 -200H100Q350 99 350 700Q350 1301 100 1600H250Z" />
<glyph unicode="*" glyph-name="asterisk" horiz-adv-x="800" d="M480 1199L670 1240L700 1080L530 1060L640 900L500 810L400 990L300 810L160 900L280 1060L100 1080L130 1240L325 1200L315 1400L490 1399L480 1199Z" />
<glyph unicode="+" glyph-name="plus" horiz-adv-x="1200" d="M500 1200H700V800H1100V600H700V200H500V600H100V800H500V1200Z" />
<glyph unicode="," glyph-name="comma" horiz-adv-x="600" d="M400 200V0Q400 -250 200 -250V-150Q270 -150 270 0H200V200H400Z" />
<glyph unicode="-" glyph-name="hyphen" horiz-adv-x="800" d="M700 800V600H100V800H700Z" />
<glyph unicode="." glyph-name="period" horiz-adv-x="600" d="M400 200V0H200V200H400Z" />
<glyph unicode="/" glyph-name="slash" horiz-adv-x="700" d="M0 -200L510 1600H700L190 -200H0Z" />
<glyph unicode="0" glyph-name="zero" horiz-adv-x="1000" d="M500 1220Q300 1220 300 938V480Q300 180 500 180Q700 180 700 480V938Q700 1220 500 1220ZM900 938V480Q900 -20 500 -20Q100 -20 100 480V938Q100 1420 500 1420Q900 1420 900 938Z" />
<glyph unicode="1" glyph-name="one" horiz-adv-x="850" d="M200 1000V1200Q300 1200 450 1400H650V0H450V1150Q330 1000 200 1000Z" />
<glyph unicode="2" glyph-name="two" horiz-adv-x="1000" d="M900 1020Q900 750 620 540Q341 331 330 200H900V0H100V150Q130 400 415 625Q700 850 700 1020Q698 1220 499 1220Q299 1220 299 980L101 1018Q128 1420 499 1420Q899 1420 900 1020Z" />
<glyph unicode="3" glyph-name="three" horiz-adv-x="1050" d="M930 1020Q930 783 735 702Q950 622 950 380Q949 -20 519 -20Q125 -20 100 380L299 410Q299 180 519 180Q748 180 750 380Q750 600 480 600V800Q730 800 730 1020Q728 1220 519 1220Q319 1220 319
980L121 1018Q148 1420 519 1420Q929 1420 930 1020Z" />
<glyph unicode="4" glyph-name="four" horiz-adv-x="1050" d="M650 0V400H100V600L620 1400H850V600H950V400H850V0H650ZM650 600V1100L330 600H650Z" />
<glyph unicode="5" glyph-name="five" horiz-adv-x="1050" d="M750 500Q750 750 550 750Q360 750 310 580L120 630L170 1400H900V1200H370L340 850Q400 950 550 950Q950 950 950 500V450Q948 -20 519 -20Q125 -20 100 380L299 410Q299 180 519 180Q748 180 750 450V500Z" />
<glyph unicode="6" glyph-name="six" horiz-adv-x="1050" d="M530 -20Q100 -20 100 480V910Q100 1420 530 1420Q921 1420 948 1018L750 980Q750 1220 530 1220Q300 1220 300 910V790Q407 900 560 900Q945 900 950 460Q944 -20 530 -20ZM560 700Q419 700 300 600V480Q300
180 530 180Q745 180 750 450Q750 700 560 700Z" />
<glyph unicode="7" glyph-name="seven" horiz-adv-x="1050" d="M950 1400V1200L480 -80L300 0L740 1200H300V1000H100V1400H950Z" />
<glyph unicode="8" glyph-name="eight" horiz-adv-x="1050" d="M120 1000Q120 1400 520 1400Q930 1400 930 1000Q930 785 777 703Q950 622 950 400Q950 0 520 0Q100 0 100 400Q100 622 269 703Q120 786 120 1000ZM750 400Q750 620 520 620Q300 620 300 400Q300
200 520 200Q750 200 750 400ZM730 1000Q730 1200 520 1200Q320 1200 320 1000Q320 780 520 780Q730 780 730 1000Z" />
<glyph unicode="9" glyph-name="nine" horiz-adv-x="1050" d="M520 1420Q950 1420 950 900V490Q950 -20 520 -20Q129 -20 102 382L300 420Q300 180 520 180Q750 180 750 490V609Q642 500 490 500Q100 500 100 950Q111 1420 520 1420ZM490 700Q631 700 750 800V900Q750
1220 520 1220Q304 1220 300 950Q300 700 490 700Z" />
<glyph unicode=":" glyph-name="colon" horiz-adv-x="600" d="M400 200V0H200V200H400ZM400 1000V800H200V1000H400Z" />
<glyph unicode=";" glyph-name="semicolon" horiz-adv-x="600" d="M400 200V0Q400 -250 200 -250V-150Q270 -150 270 0H200V200H400ZM400 1000V800H200V1000H400Z" />
<glyph unicode="&lt;" glyph-name="less" horiz-adv-x="1000" d="M100 800L900 1150V940L350 700L900 460V250L100 600V800Z" />
<glyph unicode="=" glyph-name="equal" horiz-adv-x="1000" d="M900 1000V800H100V1000H900ZM900 600V400H100V600H900Z" />
<glyph unicode="&gt;" glyph-name="greater" horiz-adv-x="1000" d="M900 600L100 250V460L650 700L100 940V1150L900 800V600Z" />
<glyph unicode="?" glyph-name="question" horiz-adv-x="1099" d="M999 1000Q999 750 799 630Q600 510 589 400H409Q409 600 604 725Q799 849 799 1000Q799 1220 549 1220Q299 1220 299 980L101 1018Q128 1420 549 1420Q999 1420 999 1000ZM599 200V0H399V200H599Z" />
<glyph unicode="@" glyph-name="at" horiz-adv-x="1400" d="M840 1000Q999 1000 1100 850V1000Q1100 1200 900 1200H500Q300 1200 300 1000V350Q300 220 385 174L291 -12Q100 74 100 350V1000Q100 1400 500 1400H900Q1300 1400 1300 1000V0H1100V150Q999 0 840
0Q470 0 470 450V550Q470 1000 840 1000ZM1100 700Q1000 800 840 800Q670 800 670 550V450Q670 200 840 200Q1000 200 1100 300V700Z" />
<glyph unicode="A" glyph-name="A" horiz-adv-x="1000" d="M600 1400L1000 0H800L719 300H280L200 0H0L400 1400H600ZM334 500H666L500 1120L334 500Z" />
<glyph unicode="B" glyph-name="B" horiz-adv-x="1100" d="M580 1400Q980 1400 980 1000Q980 789 834 705Q1000 626 1000 400Q1000 0 600 0H100V1400H580ZM600 200Q800 200 800 400Q800 600 600 600H300V200H600ZM580 800Q780 800 780 1000Q780 1200 580 1200H300V800H580Z"
/>
<glyph unicode="C" glyph-name="C" horiz-adv-x="1099" d="M550 -20Q100 -20 100 530V860Q100 1420 550 1420Q971 1420 998 1018L800 980Q800 1220 550 1220Q300 1220 300 860V530Q300 180 550 180Q800 180 800 410L999 380Q974 -20 550 -20Z" />
<glyph unicode="D" glyph-name="D" horiz-adv-x="1100" d="M550 1200H300V200H550Q800 200 800 550V840Q800 1200 550 1200ZM1000 840V550Q1000 0 550 0H100V1400H550Q1000 1400 1000 840Z" />
<glyph unicode="E" glyph-name="E" horiz-adv-x="1000" d="M900 1400V1200H300V800H850V600H300V200H900V0H100V1400H900Z" />
<glyph unicode="F" glyph-name="F" horiz-adv-x="1000" d="M900 1400V1200H300V800H850V600H300V0H100V1400H900Z" />
<glyph unicode="G" glyph-name="G" horiz-adv-x="1100" d="M550 180Q751 180 800 280V600H600V800H1000V180Q850 -20 550 -20Q100 -20 100 530V860Q100 1420 550 1420Q971 1420 998 1018L800 980Q800 1220 550 1220Q300 1220 300 860V530Q300 180 550 180Z" />
<glyph unicode="H" glyph-name="H" horiz-adv-x="1100" d="M300 1400V800H800V1400H1000V0H800V600H300V0H100V1400H300Z" />
<glyph unicode="I" glyph-name="I" horiz-adv-x="600" d="M200 0V1400H400V0H200Z" />
<glyph unicode="J" glyph-name="J" horiz-adv-x="1001" d="M100 380L299 410Q299 180 499 180Q700 180 701 430V1400H901V430Q899 -20 499 -20Q124 -20 100 380Z" />
<glyph unicode="K" glyph-name="K" horiz-adv-x="1000" d="M300 1400V780L770 1400H1000L546 816L1000 0H770L420 655L300 500V0H100V1400H300Z" />
<glyph unicode="L" glyph-name="L" horiz-adv-x="1000" d="M100 0V1400H300V200H900V0H100Z" />
<glyph unicode="M" glyph-name="M" horiz-adv-x="1400" d="M400 1400L700 580L1000 1400H1300V0H1100V1125L800 300H600L300 1125V0H100V1400H400Z" />
<glyph unicode="N" glyph-name="N" horiz-adv-x="1100" d="M100 0V1400H300L800 400V1400H1000V0H800L300 1000V0H100Z" />
<glyph unicode="O" glyph-name="O" horiz-adv-x="1100" d="M550 1220Q300 1220 300 860V530Q300 180 550 180Q800 180 800 530V860Q800 1220 550 1220ZM1000 860V530Q1000 -20 550 -20Q100 -20 100 530V860Q100 1420 550 1420Q1000 1420 1000 860Z" />
<glyph unicode="P" glyph-name="P" horiz-adv-x="1100" d="M600 1400Q1000 1400 1000 1000Q1000 600 600 600H300V0H100V1400H600ZM600 800Q800 800 800 1000Q800 1200 600 1200H300V800H600Z" />
<glyph unicode="Q" glyph-name="Q" horiz-adv-x="1100" d="M1000 530Q1000 176 814 50Q915 -20 1000 -20L950 -220Q849 -220 725 -120Q601 -20 500 -20V-18Q100 10 100 530V860Q100 1420 550 1420Q1000 1420 1000 860V530ZM550 1220Q300 1220 300 860V530Q300
180 550 180Q800 180 800 530V860Q800 1220 550 1220Z" />
<glyph unicode="R" glyph-name="R" horiz-adv-x="1100" d="M600 1400Q1000 1400 1000 1000Q989 670 718 610L1100 0H850L500 600H300V0H100V1400H600ZM600 800Q800 800 800 1000Q800 1200 600 1200H300V800H600Z" />
<glyph unicode="S" glyph-name="S" horiz-adv-x="1098" d="M548 180Q798 180 798 370Q798 519 453 635Q108 750 108 1030Q108 1420 548 1420Q968 1420 986 1025L788 1000Q788 1220 548 1220Q308 1220 308 1030Q308 880 653 765Q998 649 998 370Q998 -20 548 -20Q116
-20 100 380L298 400Q298 180 548 180Z" />
<glyph unicode="T" glyph-name="T" horiz-adv-x="1100" d="M1000 1400V1200H650V0H450V1200H100V1400H1000Z" />
<glyph unicode="U" glyph-name="U" horiz-adv-x="1100" d="M300 1400V530Q300 180 550 180Q800 180 800 530V1400H1000V530Q1000 -20 550 -20Q100 -20 100 530V1400H300Z" />
<glyph unicode="V" glyph-name="V" horiz-adv-x="1000" d="M400 0L0 1400H200L500 280L800 1400H1000L600 0H400Z" />
<glyph unicode="W" glyph-name="W" horiz-adv-x="1650" d="M320 0L0 1400H200L450 280L700 1400H950L1200 280L1450 1400H1650L1330 0H1070L825 1072L580 0H320Z" />
<glyph unicode="X" glyph-name="X" horiz-adv-x="1100" d="M1050 1400L665 700L1050 0H820L550 491L280 0H50L435 700L50 1400H280L550 909L820 1400H1050Z" />
<glyph unicode="Y" glyph-name="Y" horiz-adv-x="1000" d="M600 0H400V600L0 1400H200L500 810L800 1400H1000L600 600V0Z" />
<glyph unicode="Z" glyph-name="Z" horiz-adv-x="1100" d="M980 1400V1200L340 200H1000V0H100V200L740 1200H130V1400H980Z" />
<glyph unicode="[" glyph-name="bracketleft" horiz-adv-x="650" d="M550 1600V1400H300V0H550V-200H100V1600H550Z" />
<glyph unicode="\" glyph-name="backslash" horiz-adv-x="700" d="M510 -200L0 1600H190L700 -200H510Z" />
<glyph unicode="]" glyph-name="bracketright" horiz-adv-x="650" d="M550 1600V-200H100V0H350V1400H100V1600H550Z" />
<glyph unicode="^" glyph-name="asciicircum" horiz-adv-x="1000" d="M620 1400L900 700H690L500 1210L310 700H100L380 1400H620Z" />
<glyph unicode="_" glyph-name="underscore" horiz-adv-x="800" d="M800 -250V-400H0V-250H800Z" />
<glyph unicode="`" glyph-name="grave" horiz-adv-x="730" d="M370 1200L200 1400H430L530 1200H370Z" />
<glyph unicode="a" glyph-name="a" horiz-adv-x="1000" d="M120 860Q299 1020 500 1020Q900 1020 900 600V200Q900 102 950 0H750Q717 66 705 132Q633 -20 450 -20Q100 -20 100 280Q100 580 500 580H700V600Q700 820 500 820Q350 820 250 720L120 860ZM450 160Q670
160 700 330V410H500Q300 410 300 290Q300 160 450 160Z" />
<glyph unicode="b" glyph-name="b" horiz-adv-x="1030" d="M100 0V1400H300V850Q400 1000 560 1000Q930 1000 930 550V450Q930 0 560 0Q400 0 300 150V0H100ZM300 300Q400 200 560 200Q730 200 730 450V550Q730 800 560 800Q400 800 300 700V300Z" />
<glyph unicode="c" glyph-name="c" horiz-adv-x="999" d="M530 -20Q105 -20 100 450V550Q105 1020 530 1020Q824 1020 899 820L750 700Q700 820 530 820Q304 820 300 550V460Q300 180 530 180Q700 180 750 300L899 180Q824 -20 530 -20Z" />
<glyph unicode="d" glyph-name="d" horiz-adv-x="1030" d="M470 1000Q629 1000 730 850V1400H930V0H730V150Q629 0 470 0Q100 0 100 450V550Q100 1000 470 1000ZM730 700Q630 800 470 800Q300 800 300 550V450Q300 200 470 200Q630 200 730 300V700Z" />
<glyph unicode="e" glyph-name="e" horiz-adv-x="1000" d="M900 420H300Q309 180 530 180Q700 180 750 300L899 180Q824 -20 530 -20Q104 -20 100 430V570Q104 1020 510 1020Q900 1020 900 570V420ZM700 580Q695 820 510 820Q307 820 300 580H700Z" />
<glyph unicode="f" glyph-name="f" horiz-adv-x="750" d="M200 820H100V1000H200V1100Q200 1400 500 1400Q571 1400 650 1360V1180Q568 1200 500 1200Q400 1200 400 1100V1000H650V820H400V0H200V820Z" />
<glyph unicode="g" glyph-name="g" horiz-adv-x="1030" d="M470 1000Q629 1000 730 850V1000H930V10Q930 -420 500 -420Q206 -420 131 -220L280 -100Q329 -220 500 -220Q730 -220 730 10V150Q629 0 470 0Q100 0 100 450V550Q100 1000 470 1000ZM730 700Q630 800
470 800Q300 800 300 550V450Q300 200 470 200Q630 200 730 300V700Z" />
<glyph unicode="h" glyph-name="h" horiz-adv-x="1030" d="M100 0V1400H300V850Q400 1000 560 1000Q930 1000 930 550V0H730V550Q730 800 560 800Q400 800 300 700V0H100Z" />
<glyph unicode="i" glyph-name="i" horiz-adv-x="600" d="M200 0V1000H400V0H200ZM400 1400V1200H200V1400H400Z" />
<glyph unicode="j" glyph-name="j" horiz-adv-x="600" d="M394 1400V1200H194V1400H394ZM73 -220Q193 -220 195 -20V1000H395V-20Q394 -420 73 -420Q-39 -420 -100 -375L-41 -191Q-6 -220 73 -220Z" />
<glyph unicode="k" glyph-name="k" horiz-adv-x="953" d="M300 1400V570L690 1000H950L570 591L950 0H720L436 446L300 300V0H100V1400H300Z" />
<glyph unicode="l" glyph-name="l" horiz-adv-x="600" d="M200 0V1400H400V0H200Z" />
<glyph unicode="m" glyph-name="m" horiz-adv-x="1550" d="M820 850Q950 1000 1100 1000Q1450 1000 1450 550V0H1250V550Q1250 800 1100 800Q949 800 870 700Q875 670 877 633T880 550V0H680V550Q680 800 530 800Q400 800 300 700V0H100V1000H300V850Q400 1000
530 1000Q740 1000 820 850Z" />
<glyph unicode="n" glyph-name="n" horiz-adv-x="1030" d="M100 0V1000H300V850Q400 1000 560 1000Q930 1000 930 550V0H730V550Q730 800 560 800Q400 800 300 700V0H100Z" />
<glyph unicode="o" glyph-name="o" horiz-adv-x="1060" d="M530 1020Q955 1020 960 550V450Q955 -20 530 -20Q105 -20 100 450V550Q105 1020 530 1020ZM530 180Q760 180 760 460V540Q760 820 530 820Q300 820 300 540V460Q300 180 530 180Z" />
<glyph unicode="p" glyph-name="p" horiz-adv-x="1030" d="M100 -400V1000H300V850Q400 1000 560 1000Q930 1000 930 550V450Q930 0 560 0Q400 0 300 150V-400H100ZM300 300Q400 200 560 200Q730 200 730 450V550Q730 800 560 800Q400 800 300 700V300Z" />
<glyph unicode="q" glyph-name="q" horiz-adv-x="1030" d="M470 1000Q629 1000 730 850V1000H930V-400H730V150Q629 0 470 0Q100 0 100 450V550Q100 1000 470 1000ZM730 700Q630 800 470 800Q300 800 300 550V450Q300 200 470 200Q630 200 730 300V700Z" />
<glyph unicode="r" glyph-name="r" horiz-adv-x="800" d="M560 1000Q661 1000 747 949L689 769Q637 800 560 800Q400 800 300 700V0H100V1000H300V850Q400 1000 560 1000Z" />
<glyph unicode="s" glyph-name="s" horiz-adv-x="994" d="M493 170Q693 170 693 310Q683 400 484 410Q104 421 104 700Q110 1020 494 1020Q705 1020 868 926L807 740Q685 830 494 830Q308 830 304 697Q307 601 504 590Q894 579 894 300H892Q887 -20 493 -20Q215
-20 100 70L162 255Q277 170 493 170Z" />
<glyph unicode="t" glyph-name="t" horiz-adv-x="750" d="M200 1300H400V1000H650V820H400V350Q400 200 500 200Q568 200 650 220V40Q571 0 500 0Q200 0 200 350V820H100V1000H200V1300Z" />
<glyph unicode="u" glyph-name="u" horiz-adv-x="1030" d="M930 1000V0H730V150Q629 0 470 0Q100 0 100 450V1000H300V450Q300 200 470 200Q630 200 730 300V1000H930Z" />
<glyph unicode="v" glyph-name="v" horiz-adv-x="900" d="M350 0L0 1000H210L450 290L690 1000H900L550 0H350Z" />
<glyph unicode="w" glyph-name="w" horiz-adv-x="1400" d="M300 0L0 1000H210L400 340L590 1000H810L1000 340L1190 1000H1400L1100 0H900L700 666L500 0H300Z" />
<glyph unicode="x" glyph-name="x" horiz-adv-x="1000" d="M950 1000L615 500L950 0H720L500 328L280 0H50L385 500L50 1000H280L500 671L720 1000H950Z" />
<glyph unicode="y" glyph-name="y" horiz-adv-x="900" d="M150 -400Q125 -400 100 -398T50 -390L71 -194Q110 -200 150 -200Q281 -200 321 -100L354 0H350L0 1000H210L449 282L690 1000H900L515 -100Q420 -400 150 -400Z" />
<glyph unicode="z" glyph-name="z" horiz-adv-x="1000" d="M880 1000V800L360 200H900V0H100V200L620 800H130V1000H880Z" />
<glyph unicode="{" glyph-name="braceleft" horiz-adv-x="800" d="M300 400Q300 600 100 600V800Q300 800 300 1000V1200Q300 1600 700 1600V1400Q500 1400 500 1200V1000Q500 783 345 700Q500 617 500 400V200Q500 0 700 0V-200Q300 -200 300 200V400Z" />
<glyph unicode="|" glyph-name="bar" horiz-adv-x="600" d="M200 -200V1600H400V-200H200Z" />
<glyph unicode="}" glyph-name="braceright" horiz-adv-x="800" d="M100 0Q300 0 300 200V400Q300 618 454 700Q300 782 300 1000V1200Q300 1400 100 1400V1600Q500 1600 500 1200V1000Q500 800 700 800V600Q500 600 500 400V200Q500 -200 100 -200V0Z" />
<glyph unicode="~" glyph-name="asciitilde" horiz-adv-x="1200" d="M100 750Q200 900 350 900Q499 900 615 840Q730 780 870 780Q999 780 1100 900V750Q999 600 850 600Q700 600 585 660Q469 720 330 720Q200 720 100 600V750Z" />
</font>
</defs>
</svg>
