<?xml version="1.0" standalone="no"?> <!DOCTYPE svg PUBLIC "-//W3C//DTD SVG 1.0//EN" "http://www.w3.org/TR/2001/REC-SVG-20010904/DTD/svg10.dtd" > <svg xmlns="http://www.w3.org/2000/svg" width="100%" height="100%">
<defs >
<font id="fp-33440" horiz-adv-x="1022" ><font-face
    font-family="Freeroad"
    units-per-em="2048"
    panose-1="2 11 8 3 1 1 1 1 1 1"
    ascent="1400"
    descent="-400"
    alphabetic="0" />
<missing-glyph horiz-adv-x="1100" d="M1000 1400V0H100V1400H1000ZM400 1150V250H700V1150H400Z" />
<glyph unicode=" " glyph-name="space" horiz-adv-x="700" />
<glyph unicode="!" glyph-name="exclam" horiz-adv-x="700" d="M500 1400V1000L480 400H220L200 1000V1400H500ZM500 250V0H200V250H500Z" />
<glyph unicode="&quot;" glyph-name="quotedbl" horiz-adv-x="1153" d="M500 1400V1200L480 1000H220L200 1200V1400H500ZM950 1400V1200L930 1000H670L650 1200V1400H950Z" />
<glyph unicode="#" glyph-name="numbersign" horiz-adv-x="1500" d="M200 0L264 300H100V550H317L383 850H200V1100H436L500 1400H800L736 1100H936L1000 1400H1300L1236 1100H1400V850H1183L1117 550H1300V300H1064L1000 0H700L764 300H564L500 0H200ZM617 550H817L883
850H683L617 550Z" />
<glyph unicode="$" glyph-name="dollar" horiz-adv-x="1098" d="M624 1600V1416Q970 1381 986 1025L688 1000Q688 1132 624 1163V815Q998 680 998 400Q998 15 624 -17V-200H474V-17Q113 16 100 380L398 400Q398 265 474 235V598Q469 600 464 601T453 605Q108 720
108 1000Q108 1385 474 1417V1600H624ZM698 390Q698 536 624 545V235Q698 261 698 390ZM408 1010Q408 875 474 868V1164Q408 1138 408 1010Z" />
<glyph unicode="%" glyph-name="percent" horiz-adv-x="1700" d="M1300 740Q1600 740 1600 410V320Q1595 0 1300 0Q1000 0 1000 330V410Q1000 740 1300 740ZM400 1400Q695 1400 700 1080V990Q700 660 400 660Q100 660 100 990V1080Q105 1400 400 1400ZM350 0L1060
1400H1350L640 0H350ZM400 870Q465 870 470 980V1070Q470 1190 400 1190Q333 1190 330 1080V990Q330 870 400 870ZM1300 210Q1367 210 1370 321V410Q1370 530 1300 530Q1233 530 1230 420V321Q1233 210 1300 210Z" />
<glyph unicode="&amp;" glyph-name="ampersand" horiz-adv-x="1350" d="M500 0Q100 0 100 400Q100 663 342 773Q270 924 270 1050Q270 1400 640 1400Q1000 1400 1000 1050Q1000 800 741 665L822 576L910 750L1200 600L1068 386L1280 176L1071 -43L886 138Q746
0 500 0ZM695 326L505 529Q400 496 400 400Q400 250 520 250Q632 250 695 326ZM570 1020Q570 953 605 874Q700 904 700 1020Q700 1150 640 1150Q570 1150 570 1020Z" />
<glyph unicode="&apos;" glyph-name="quotesingle" horiz-adv-x="700" d="M500 1400V1200L480 1000H220L200 1200V1400H500Z" />
<glyph unicode="(" glyph-name="parenleft" horiz-adv-x="750" d="M650 1600Q400 1301 400 700Q400 99 650 -200H400Q100 100 100 700Q100 1300 400 1600H650Z" />
<glyph unicode=")" glyph-name="parenright" horiz-adv-x="750" d="M350 1600Q650 1300 650 700Q650 100 350 -200H100Q350 99 350 700Q350 1301 100 1600H350Z" />
<glyph unicode="*" glyph-name="asterisk" horiz-adv-x="800" d="M480 1199L670 1240L700 1080L530 1060L640 900L500 810L400 990L300 810L160 900L280 1060L100 1080L130 1240L325 1200L315 1400L490 1399L480 1199Z" />
<glyph unicode="+" glyph-name="plus" horiz-adv-x="1200" d="M450 1200H750V820H1100V570H750V200H450V570H100V820H450V1200Z" />
<glyph unicode="," glyph-name="comma" horiz-adv-x="700" d="M500 250V0Q500 -250 200 -250V-100Q270 -100 270 0H200V250H500Z" />
<glyph unicode="-" glyph-name="hyphen" horiz-adv-x="800" d="M700 820V570H100V820H700Z" />
<glyph unicode="." glyph-name="period" horiz-adv-x="700" d="M500 250V0H200V250H500Z" />
<glyph unicode="/" glyph-name="slash" horiz-adv-x="700" d="M0 -200L410 1600H700L290 -200H0Z" />
<glyph unicode="0" glyph-name="zero" horiz-adv-x="1000" d="M500 1170Q400 1170 400 938V480Q400 230 500 230Q600 230 600 480V938Q600 1170 500 1170ZM900 938V480Q900 -20 500 -20Q100 -20 100 480V938Q100 1420 500 1420Q900 1420 900 938Z" />
<glyph unicode="1" glyph-name="one" horiz-adv-x="850" d="M200 950V1200Q300 1200 350 1400H650V0H350V1050Q301 950 200 950Z" />
<glyph unicode="2" glyph-name="two" horiz-adv-x="1000" d="M900 1020Q900 751 670 590Q440 429 430 250H900V0H100V250Q130 500 365 675Q600 850 600 1020Q598 1170 499 1170Q399 1170 399 980L101 1018Q128 1420 499 1420Q899 1420 900 1020Z" />
<glyph unicode="3" glyph-name="three" horiz-adv-x="1050" d="M930 1020Q930 783 735 702Q950 622 950 380Q949 -20 519 -20Q125 -20 100 380L399 410Q399 230 519 230Q648 230 650 380Q650 600 480 600V800Q630 800 630 1020Q628 1170 519 1170Q419 1170 419
980L121 1018Q148 1420 519 1420Q929 1420 930 1020Z" />
<glyph unicode="4" glyph-name="four" horiz-adv-x="1050" d="M600 0V300H100V550L350 1400H900V550H950V300H900V0H600ZM600 550V1150L430 550H600Z" />
<glyph unicode="5" glyph-name="five" horiz-adv-x="1050" d="M650 500Q650 700 550 700Q459 700 410 580L120 630L170 1400H900V1150H470L440 850Q500 950 650 950Q950 950 950 500V450Q948 -20 519 -20Q125 -20 100 380L399 410Q399 230 519 230Q649 230 650 450V500Z" />
<glyph unicode="6" glyph-name="six" horiz-adv-x="1050" d="M530 -20Q100 -20 100 480V910Q100 1420 530 1420Q921 1420 948 1018L650 980Q650 1170 530 1170Q400 1170 400 910V790Q457 900 610 900Q945 900 950 460Q944 -20 530 -20ZM560 650Q470 650 400 560V480Q400
230 530 230Q646 230 650 450Q650 650 560 650Z" />
<glyph unicode="7" glyph-name="seven" horiz-adv-x="1050" d="M950 1400V1100L580 -80L300 0L660 1150H400V1000H100V1400H950Z" />
<glyph unicode="8" glyph-name="eight" horiz-adv-x="1050" d="M120 1000Q120 1400 520 1400Q930 1400 930 1000Q930 785 777 703Q950 622 950 400Q950 0 520 0Q100 0 100 400Q100 622 269 703Q120 786 120 1000ZM650 430Q650 590 520 590Q400 590 400 430Q400
250 520 250Q650 250 650 430ZM630 970Q630 1150 520 1150Q420 1150 420 970Q420 800 520 800Q630 800 630 970Z" />
<glyph unicode="9" glyph-name="nine" horiz-adv-x="1050" d="M520 1420Q950 1420 950 920V490Q950 -20 520 -20Q129 -20 102 382L400 420Q400 230 520 230Q650 230 650 490V610Q593 500 440 500Q105 500 100 940Q106 1420 520 1420ZM490 750Q579 750 650 840V920Q650
1170 520 1170Q404 1170 400 950Q400 750 490 750Z" />
<glyph unicode=":" glyph-name="colon" horiz-adv-x="700" d="M500 250V0H200V250H500ZM500 1000V750H200V1000H500Z" />
<glyph unicode=";" glyph-name="semicolon" horiz-adv-x="700" d="M500 250V0Q500 -250 200 -250V-100Q270 -100 270 0H200V250H500ZM500 1000V750H200V1000H500Z" />
<glyph unicode="&lt;" glyph-name="less" horiz-adv-x="1000" d="M100 800L900 1150V870L450 700L900 530V250L100 600V800Z" />
<glyph unicode="=" glyph-name="equal" horiz-adv-x="1000" d="M900 1050V800H100V1050H900ZM900 600V350H100V600H900Z" />
<glyph unicode="&gt;" glyph-name="greater" horiz-adv-x="1000" d="M900 600L100 250V530L550 700L100 870V1150L900 800V600Z" />
<glyph unicode="?" glyph-name="question" horiz-adv-x="1099" d="M999 1000Q999 750 849 630Q700 510 689 400H409Q409 601 554 725Q699 849 699 1000Q699 1170 549 1170Q399 1170 399 980L101 1018Q128 1420 549 1420Q999 1420 999 1000ZM699 250V0H399V250H699Z" />
<glyph unicode="@" glyph-name="at" horiz-adv-x="1400" d="M1300 0H1000V120Q950 0 800 0Q470 0 470 450V550Q470 1000 810 1000Q950 1000 1000 880V1050Q1000 1150 900 1150H500Q400 1150 400 1050V350Q400 220 485 174L291 -12Q100 74 100 350V1000Q100 1400
500 1400H900Q1300 1400 1300 1000V0ZM1000 680Q951 750 860 750Q770 750 770 550V450Q770 250 860 250Q951 250 1000 320V680Z" />
<glyph unicode="A" glyph-name="A" horiz-adv-x="1000" d="M710 1400L1000 0H700L649 300H350L300 0H0L290 1400H710ZM394 550H606L500 1080L394 550Z" />
<glyph unicode="B" glyph-name="B" horiz-adv-x="1100" d="M530 1400Q980 1400 980 1000Q980 789 834 705Q1000 626 1000 400Q1000 0 550 0H100V1400H530ZM550 250Q700 250 700 430Q700 570 550 570H400V250H550ZM530 820Q680 820 680 970Q680 1150 530 1150H400V820H530Z"
/>
<glyph unicode="C" glyph-name="C" horiz-adv-x="1099" d="M550 -20Q100 -20 100 530V860Q100 1420 550 1420Q971 1420 998 1018L700 980Q700 1170 550 1170Q400 1170 400 860V530Q400 230 550 230Q700 230 700 410L999 380Q974 -20 550 -20Z" />
<glyph unicode="D" glyph-name="D" horiz-adv-x="1100" d="M500 1150H400V250H500Q700 250 700 550V840Q700 1150 500 1150ZM1000 840V550Q1000 0 500 0H100V1400H500Q1000 1400 1000 840Z" />
<glyph unicode="E" glyph-name="E" horiz-adv-x="1000" d="M900 1400V1150H400V820H850V570H400V250H900V0H100V1400H900Z" />
<glyph unicode="F" glyph-name="F" horiz-adv-x="1000" d="M900 1400V1150H400V820H850V570H400V0H100V1400H900Z" />
<glyph unicode="G" glyph-name="G" horiz-adv-x="1100" d="M550 230Q650 230 700 290V570H550V820H1000V180Q850 -20 550 -20Q100 -20 100 530V860Q100 1420 550 1420Q971 1420 998 1018L700 980Q700 1170 550 1170Q400 1170 400 860V530Q400 230 550 230Z" />
<glyph unicode="H" glyph-name="H" horiz-adv-x="1100" d="M400 1400V820H700V1400H1000V0H700V570H400V0H100V1400H400Z" />
<glyph unicode="I" glyph-name="I" horiz-adv-x="700" d="M200 0V1400H500V0H200Z" />
<glyph unicode="J" glyph-name="J" horiz-adv-x="1001" d="M100 380L399 410Q399 230 499 230Q599 230 601 430V1400H901V430Q899 -20 499 -20Q124 -20 100 380Z" />
<glyph unicode="K" glyph-name="K" horiz-adv-x="1100" d="M400 1400V880L670 1400H1000L666 816L1000 0H670L470 495L400 370V0H100V1400H400Z" />
<glyph unicode="L" glyph-name="L" horiz-adv-x="1000" d="M100 0V1400H400V250H900V0H100Z" />
<glyph unicode="M" glyph-name="M" horiz-adv-x="1400" d="M500 1400L700 680L900 1400H1300V0H1000V725L840 200H560L400 725V0H100V1400H500Z" />
<glyph unicode="N" glyph-name="N" horiz-adv-x="1100" d="M100 0V1400H400L700 700V1400H1000V0H700L400 700V0H100Z" />
<glyph unicode="O" glyph-name="O" horiz-adv-x="1100" d="M550 1170Q400 1170 400 860V530Q400 230 550 230Q700 230 700 530V860Q700 1170 550 1170ZM1000 860V530Q1000 -20 550 -20Q100 -20 100 530V860Q100 1420 550 1420Q1000 1420 1000 860Z" />
<glyph unicode="P" glyph-name="P" horiz-adv-x="1100" d="M500 1400Q1000 1400 1000 950Q1000 500 500 500H400V0H100V1400H500ZM500 750Q700 750 700 950Q700 1150 500 1150H400V750H500Z" />
<glyph unicode="Q" glyph-name="Q" horiz-adv-x="1100" d="M1000 530Q1000 236 864 100Q916 30 1000 30L950 -220Q849 -220 725 -120Q601 -20 500 -20V-18Q100 10 100 530V860Q100 1420 550 1420Q1000 1420 1000 860V530ZM550 1170Q400 1170 400 860V530Q400 230
550 230Q700 230 700 530V860Q700 1170 550 1170Z" />
<glyph unicode="R" glyph-name="R" horiz-adv-x="1100" d="M500 1400Q1000 1400 1000 950Q1000 699 798 590L1100 0H750L500 500H400V0H100V1400H500ZM500 750Q700 750 700 950Q700 1150 500 1150H400V750H500Z" />
<glyph unicode="S" glyph-name="S" horiz-adv-x="1098" d="M108 1010Q108 1405 554 1417Q970 1402 986 975L688 950Q688 1162 554 1164Q408 1158 408 1010Q408 866 703 773Q998 680 998 390Q998 -7 544 -17Q113 -4 100 430L398 450Q398 235 532 235H544Q698 241
698 390Q698 526 403 623Q108 720 108 1010Z" />
<glyph unicode="T" glyph-name="T" horiz-adv-x="1100" d="M1000 1400V1150H700V0H400V1150H100V1400H1000Z" />
<glyph unicode="U" glyph-name="U" horiz-adv-x="1100" d="M400 1400V530Q400 230 550 230Q700 230 700 530V1400H1000V530Q1000 -20 550 -20Q100 -20 100 530V1400H400Z" />
<glyph unicode="V" glyph-name="V" horiz-adv-x="1000" d="M300 0L0 1400H300L500 280L700 1400H1000L700 0H300Z" />
<glyph unicode="W" glyph-name="W" horiz-adv-x="1650" d="M220 0L0 1400H300L450 280L600 1400H1050L1200 280L1350 1400H1650L1430 0H970L825 1072L680 0H220Z" />
<glyph unicode="X" glyph-name="X" horiz-adv-x="1100" d="M1050 1400L765 700L1050 0H720L550 491L380 0H50L335 700L50 1400H380L550 909L720 1400H1050Z" />
<glyph unicode="Y" glyph-name="Y" horiz-adv-x="1000" d="M650 0H350V600L0 1400H300L500 930L700 1400H1000L650 600V0Z" />
<glyph unicode="Z" glyph-name="Z" horiz-adv-x="1100" d="M980 1400V1150L440 250H1000V0H100V250L640 1150H130V1400H980Z" />
<glyph unicode="[" glyph-name="bracketleft" horiz-adv-x="750" d="M650 1600V1350H400V50H650V-200H100V1600H650Z" />
<glyph unicode="\" glyph-name="backslash" horiz-adv-x="700" d="M410 -200L0 1600H290L700 -200H410Z" />
<glyph unicode="]" glyph-name="bracketright" horiz-adv-x="750" d="M650 1600V-200H100V50H350V1350H100V1600H650Z" />
<glyph unicode="^" glyph-name="asciicircum" horiz-adv-x="1000" d="M660 1400L900 700H590L500 1060L410 700H100L340 1400H660Z" />
<glyph unicode="_" glyph-name="underscore" horiz-adv-x="800" d="M800 -200V-400H0V-200H800Z" />
<glyph unicode="`" glyph-name="grave" horiz-adv-x="830" d="M370 1100L200 1400H530L630 1100H370Z" />
<glyph unicode="a" glyph-name="a" horiz-adv-x="1000" d="M120 860Q299 1020 500 1020Q900 1020 900 600V200Q900 102 950 0H650Q617 66 605 132Q533 -20 350 -20Q100 -20 100 280Q100 600 500 600H600Q600 770 500 770Q350 770 250 670L120 860ZM480 210Q570
210 600 280V380H480Q400 380 400 280Q400 210 480 210Z" />
<glyph unicode="b" glyph-name="b" horiz-adv-x="1030" d="M100 0V1400H400V880Q449 1000 590 1000Q930 1000 930 550V450Q930 0 600 0Q449 0 400 120V0H100ZM400 330Q449 260 540 260Q630 260 630 410V600Q630 750 540 750Q449 750 400 680V330Z" />
<glyph unicode="c" glyph-name="c" horiz-adv-x="999" d="M560 -20Q105 -20 100 450V550Q105 1020 560 1020Q824 1020 899 850L700 680Q650 770 560 770Q404 770 400 550V460Q400 230 560 230Q650 230 700 320L899 150Q824 -20 560 -20Z" />
<glyph unicode="d" glyph-name="d" horiz-adv-x="1030" d="M630 0V120Q580 0 430 0Q100 0 100 450V550Q100 1000 440 1000Q580 1000 630 880V1400H930V0H630ZM630 680Q581 750 490 750Q400 750 400 600V410Q400 260 490 260Q581 260 630 330V680Z" />
<glyph unicode="e" glyph-name="e" horiz-adv-x="1000" d="M900 390H400Q409 230 530 230Q670 230 720 310L909 150Q793 -20 530 -20Q104 -20 100 430V570Q104 1020 510 1020Q900 1020 900 590V390ZM600 600Q595 770 510 770Q408 770 400 600H600Z" />
<glyph unicode="f" glyph-name="f" horiz-adv-x="750" d="M200 770H100V1000H200V1100Q200 1400 500 1400H650V1150H600Q500 1150 500 1000H650V770H500V0H200V770Z" />
<glyph unicode="g" glyph-name="g" horiz-adv-x="1030" d="M630 120Q580 0 430 0Q100 0 100 450V550Q100 1000 440 1000Q580 1000 630 880V1000H930V0Q924 -420 470 -420Q206 -420 101 -270L230 -70Q330 -170 470 -170Q630 -170 630 10V120ZM630 680Q581 750 490
750Q400 750 400 550V450Q400 250 490 250Q581 250 630 320V680Z" />
<glyph unicode="h" glyph-name="h" horiz-adv-x="1030" d="M400 0H100V1400H400V880Q449 1000 590 1000Q930 1000 930 550V0H630V600Q630 750 540 750Q449 750 400 680V0Z" />
<glyph unicode="i" glyph-name="i" horiz-adv-x="700" d="M200 0V1000H500V0H200ZM500 1400V1100H200V1400H500Z" />
<glyph unicode="j" glyph-name="j" horiz-adv-x="700" d="M494 1400V1100H194V1400H494ZM73 -170Q194 -170 195 -70V1000H495V-20Q494 -420 73 -420Q-39 -420 -100 -375L-41 -141Q-6 -170 73 -170Z" />
<glyph unicode="k" glyph-name="k" horiz-adv-x="1053" d="M400 1400V710L590 1000H950L650 611L950 0H620L436 346L400 300V0H100V1400H400Z" />
<glyph unicode="l" glyph-name="l" horiz-adv-x="700" d="M200 0V1400H500V0H200Z" />
<glyph unicode="m" glyph-name="m" horiz-adv-x="1530" d="M400 0H100V1000H400V880Q449 1000 590 1000Q760 1000 846 886Q954 1000 1120 1000Q1460 1000 1460 550V0H1160V600Q1160 750 1070 750Q979 750 930 680V0H630V600Q630 750 540 750Q449 750 400 680V0Z" />
<glyph unicode="n" glyph-name="n" horiz-adv-x="1030" d="M400 0H100V1000H400V880Q449 1000 590 1000Q930 1000 930 550V0H630V550Q630 750 540 750Q449 750 400 680V0Z" />
<glyph unicode="o" glyph-name="o" horiz-adv-x="1060" d="M530 1020Q955 1020 960 550V450Q955 -20 530 -20Q105 -20 100 450V550Q105 1020 530 1020ZM530 230Q660 230 660 460V540Q660 770 530 770Q400 770 400 540V460Q400 230 530 230Z" />
<glyph unicode="p" glyph-name="p" horiz-adv-x="1030" d="M400 1000V880Q449 1000 600 1000Q930 1000 930 550V450Q930 0 590 0Q449 0 400 120V-400H100V1000H400ZM400 320Q449 250 540 250Q630 250 630 400V590Q630 740 540 740Q449 740 400 670V320Z" />
<glyph unicode="q" glyph-name="q" horiz-adv-x="1030" d="M930 1000V-400H630V120Q580 0 440 0Q100 0 100 450V550Q100 1000 430 1000Q580 1000 630 880V1000H930ZM630 670Q581 740 490 740Q400 740 400 590V400Q400 250 490 250Q581 250 630 320V670Z" />
<glyph unicode="r" glyph-name="r" horiz-adv-x="900" d="M660 1000Q761 1000 847 949L789 719Q737 750 660 750Q500 750 400 650V0H100V1000H400V850Q500 1000 660 1000Z" />
<glyph unicode="s" glyph-name="s" horiz-adv-x="994" d="M493 220Q593 220 593 310Q593 370 484 380Q104 391 104 690Q110 1020 494 1020Q705 1020 868 926L757 720Q686 780 494 780Q408 780 408 690H407Q407 620 504 610Q894 599 894 310H892Q887 -20 493 -20Q215
-20 100 70L192 295Q277 220 493 220Z" />
<glyph unicode="t" glyph-name="t" horiz-adv-x="750" d="M200 1300H500V1000H650V770H500V350Q500 250 600 250H650V0H500Q200 0 200 300V770H100V1000H200V1300Z" />
<glyph unicode="u" glyph-name="u" horiz-adv-x="1030" d="M630 1000H930V0H630V120Q580 0 440 0Q100 0 100 450V1000H400V450Q400 250 490 250Q581 250 630 320V1000Z" />
<glyph unicode="v" glyph-name="v" horiz-adv-x="900" d="M250 0L0 1000H310L450 290L590 1000H900L650 0H250Z" />
<glyph unicode="w" glyph-name="w" horiz-adv-x="1400" d="M200 0L0 1000H310L400 340L490 1000H910L1000 340L1090 1000H1400L1200 0H800L700 666L600 0H200Z" />
<glyph unicode="x" glyph-name="x" horiz-adv-x="1000" d="M950 1000L715 500L950 0H620L500 328L380 0H50L285 500L50 1000H380L500 671L620 1000H950Z" />
<glyph unicode="y" glyph-name="y" horiz-adv-x="900" d="M150 -400Q125 -400 100 -398T50 -390L71 -144Q96 -148 119 -150T162 -152Q312 -152 354 0H250L0 1000H310L449 282L590 1000H900L615 -100Q520 -400 150 -400Z" />
<glyph unicode="z" glyph-name="z" horiz-adv-x="1000" d="M880 1000V750L470 250H900V0H100V250L520 750H130V1000H880Z" />
<glyph unicode="{" glyph-name="braceleft" horiz-adv-x="900" d="M300 350Q300 570 100 570V820Q300 820 300 1050V1100Q300 1600 800 1600V1350Q600 1350 600 1100V1000Q600 783 445 700Q600 617 600 400V300Q600 50 800 50V-200Q300 -200 300 300V350Z" />
<glyph unicode="|" glyph-name="bar" horiz-adv-x="700" d="M200 -200V1600H500V-200H200Z" />
<glyph unicode="}" glyph-name="braceright" horiz-adv-x="900" d="M600 1050Q600 830 800 830V580Q600 580 600 350V300Q600 -200 100 -200V50Q300 50 300 300V400Q300 617 455 700Q300 783 300 1000V1100Q300 1350 100 1350V1600Q600 1600 600 1100V1050Z" />
<glyph unicode="~" glyph-name="asciitilde" horiz-adv-x="1200" d="M100 800Q200 950 350 950Q499 950 615 890Q730 830 870 830Q999 830 1100 950V700Q999 550 850 550Q700 550 585 610Q469 670 330 670Q200 670 100 550V800Z" />
</font>
</defs>
</svg>
